<svg width="79" height="91" viewBox="0 0 79 91" fill="none" xmlns="http://www.w3.org/2000/svg">
<line x1="41.2758" y1="46.1061" x2="76.9138" y2="11.4313" stroke="white" stroke-width="4.00951"/>
<line x1="1.62349" y1="83.3023" x2="18.9609" y2="66.9281" stroke="white" stroke-width="4.00951"/>
<path d="M41.7696 66.4509C41.0521 66.3833 40.3314 66.3543 39.6107 66.3641C39.1682 66.3641 38.7505 66.3641 38.3328 66.3393C37.9082 66.3188 37.5064 66.1411 37.2056 65.8409C36.9048 65.5407 36.7265 65.1394 36.7053 64.715C36.6842 64.2907 36.8217 63.8736 37.0912 63.545C37.3606 63.2164 37.7427 62.9997 38.1632 62.9371C38.7312 62.8517 39.3071 62.8323 39.8796 62.8793L40.3469 62.9165C40.8886 62.907 41.426 63.0141 41.9227 63.2306C42.2634 63.5258 42.5442 63.8837 42.7498 64.2848C42.9111 64.5411 43.0765 64.8057 43.2709 65.0702L43.5149 65.4092H46.9477L46.9808 64.6196C47.0306 63.3969 46.6615 62.1938 45.9344 61.2092C45.4639 60.5412 44.8616 59.9765 44.1645 59.55C43.4675 59.1234 42.6905 58.844 41.8813 58.7289V56.1328H37.58V58.7371C34.3665 59.3366 32.2862 61.9119 32.4971 65.0661C32.708 68.2202 35.3674 70.56 38.676 70.593C38.9821 70.593 39.2881 70.593 39.5942 70.593C40.136 70.593 40.6488 70.593 41.1658 70.593C41.5992 70.6183 42.0068 70.8075 42.3057 71.1224C42.6045 71.4372 42.7722 71.8539 42.7746 72.2879C42.7918 72.7184 42.6401 73.1386 42.352 73.459C42.0639 73.7794 41.662 73.9747 41.232 74.0035C40.4048 74.0531 39.5487 74.0365 38.7215 74.0035H38.2542C37.9753 73.9971 37.7044 73.9096 37.4745 73.7518C37.2446 73.5939 37.0657 73.3726 36.9597 73.1147C36.853 72.9059 36.7672 72.6871 36.7032 72.4615C36.6619 72.3334 36.6247 72.2094 36.5792 72.0895L36.3806 71.5521H32.5178V72.3789C32.5218 73.7967 33.0405 75.165 33.9777 76.2294C34.9148 77.2938 36.2066 77.982 37.6131 78.1663C37.5883 78.5797 37.6131 79.0137 37.6131 79.4064C37.6131 79.5842 37.6131 79.7619 37.6131 79.9397V80.7665H41.8937V79.9397C41.8937 79.7537 41.8937 79.58 41.8937 79.4064C41.9148 78.9933 41.9148 78.5794 41.8937 78.1663V78.1373H41.9764C43.3995 77.9271 44.6976 77.2072 45.6291 76.1114C46.5605 75.0157 47.0618 73.619 47.0395 72.1813C47.0173 70.7437 46.473 69.3631 45.5081 68.2967C44.5431 67.2303 43.2233 66.5508 41.7944 66.3848L41.7696 66.4509Z" fill="#2484DC"/>
<path d="M66.0814 52.5785C65.2543 47.3285 63.1161 42.7068 61.1474 38.8748L59.8611 36.3945C58.12 33.0336 56.3209 29.5571 54.7369 26.0598C52.9378 22.083 52.0031 17.9327 51.7136 12.6C51.5676 9.18787 52.1836 5.78608 53.5168 2.64153L53.5788 2.47618C53.7315 2.3532 53.8517 2.19468 53.9288 2.01451C54.006 1.83434 54.0377 1.63801 54.0214 1.44272L54.1372 0L52.8344 0.628348C52.6152 0.735828 52.4208 0.82264 52.2429 0.901184C51.9014 1.04056 51.5734 1.21075 51.2628 1.40965C48.8268 3.06319 46.7382 5.36161 44.6951 8.68109C41.3864 14.0551 39.3516 20.9876 38.6154 29.3049C38.303 33.5699 37.508 37.7858 36.2456 41.8718C34.2149 38.2754 31.2826 35.1047 28.4578 32.025C27.3246 30.7848 26.2576 29.6397 25.2401 28.4492L24.3261 27.3868L23.8381 28.7262C23.7678 28.908 23.7057 29.0651 23.6478 29.2057C23.5306 29.474 23.4324 29.7503 23.3542 30.0325C23.2549 30.4458 23.1515 30.8592 23.0481 31.2519C22.7214 32.5169 22.3906 33.8232 22.13 35.1378C21.3259 39.4765 20.1313 43.7337 18.5608 47.8576C17.1955 51.2448 16.0314 54.7095 15.0743 58.2336C13.4737 64.3228 15.7401 74.3887 19.9215 79.7958C22.0177 83.075 24.9027 85.7768 28.3128 87.6543C31.7229 89.5319 35.5494 90.5253 39.4426 90.5438H39.5791C43.0259 90.5372 46.4274 89.7579 49.5331 88.2634C52.6388 86.7689 55.3696 84.5972 57.5244 81.9082C57.8295 81.7012 58.1073 81.4567 58.3516 81.1806C62.2599 76.7657 63.9804 71.5818 64.9068 68.7791C66.6274 63.6655 67.0079 58.3535 66.0814 52.5785ZM51.5729 80.8127C51.2634 80.9275 51.0062 81.1508 50.8492 81.4411C47.6607 84.0309 43.6793 85.4479 39.5708 85.455H39.3764C36.9508 85.4134 34.5573 84.8943 32.3325 83.9275C30.1077 82.9607 28.0954 81.5652 26.4106 79.8206C24.7653 78.1562 23.4699 76.1796 22.6005 74.0071C21.7311 71.8347 21.3054 69.5104 21.3483 67.171C21.5758 57.0183 29.4876 49.1846 39.4302 49.1846H39.7817C49.7077 49.3665 57.7188 57.473 57.6443 67.2619C57.3337 69.7425 56.8107 72.1918 56.081 74.583C55.0314 76.9522 53.4955 79.0746 51.5729 80.8127Z" fill="#0C4898"/>
<path d="M32.5151 27.6923L33.0528 26.7498C41.6429 11.6364 33.88 4.46418 33.5532 4.16654L31.9899 2.77344L32.176 4.84036C32.3414 6.65513 31.9279 7.83741 31.3034 9.62323C30.5056 11.797 29.9062 14.0384 29.5125 16.3201C28.2718 23.3476 31.6053 26.7663 31.7459 26.9069L32.5151 27.6923Z" fill="#0C4898"/>
</svg>
