<svg width="100" height="57" viewBox="0 0 100 57" fill="none" xmlns="http://www.w3.org/2000/svg">
<path d="M40.2259 54.4523C34.2072 57.1684 27.4214 57.7197 21.0368 56.0114C14.6522 54.3031 9.06826 50.442 5.24624 45.0929C1.42422 39.7438 -0.396721 33.2414 0.0969247 26.705C0.590571 20.1687 3.36792 14.0074 7.95081 9.28191C10.6239 6.53256 13.831 4.34816 17.3787 2.86037C20.9265 1.3726 24.7415 0.612248 28.5937 0.625162C30.4279 0.634685 32.1833 1.36602 33.4735 2.65829C34.7637 3.95057 35.4831 5.69792 35.4735 7.51595C35.4639 9.33398 34.726 11.0738 33.4222 12.3526C32.1184 13.6314 30.3555 14.3445 28.5212 14.3349C24.6488 14.3176 20.9279 15.8247 18.1761 18.5252C15.4243 21.2257 13.8669 24.8986 13.846 28.7367C13.9059 32.5248 15.4614 36.1388 18.1787 38.8034C20.896 41.4679 24.5587 42.9707 28.3811 42.9895C32.2035 43.0083 35.881 41.5416 38.6249 38.9039C41.3687 36.2662 42.9603 32.6677 43.0582 28.8803C43.0625 27.9801 43.2457 27.0896 43.5972 26.2596C43.9488 25.4295 44.4618 24.6763 45.1071 24.0428C45.7524 23.4093 46.5172 22.9079 47.358 22.5674C48.1987 22.2269 49.0989 22.0538 50.0072 22.0581C50.9154 22.0624 51.8139 22.2439 52.6514 22.5924C53.4888 22.9408 54.2488 23.4494 54.8879 24.0889C55.5271 24.7285 56.0329 25.4866 56.3765 26.3199C56.7201 27.1532 56.8946 28.0454 56.8903 28.9456C56.8568 34.3299 55.2701 39.5922 52.3173 44.1117C49.3646 48.6312 45.169 52.2192 40.2259 54.4523Z" fill="url(#paint0_linear_2047_97)"/>
<path d="M59.7822 2.53222C65.8012 -0.178406 72.5851 -0.725528 78.9672 0.984956C85.3492 2.69544 90.9304 6.55661 94.751 11.9044C98.5715 17.2522 100.393 23.7524 99.9009 30.287C99.4093 36.8215 96.6357 42.9821 92.0572 47.7092C89.3842 50.4568 86.1781 52.6401 82.6317 54.1278C79.0853 55.6155 75.2719 56.3768 71.4209 56.3659C69.5867 56.3573 67.831 55.6267 66.5402 54.3351C65.2493 53.0434 64.5291 51.2964 64.5378 49.4784C64.5465 47.6603 65.2836 45.9202 66.5868 44.6408C67.89 43.3614 69.6526 42.6475 71.4868 42.6561C75.3604 42.6752 79.083 41.1688 81.8362 38.4681C84.5894 35.7675 86.1478 32.0936 86.1687 28.2544C86.1782 26.3537 85.8099 24.4697 85.0848 22.7101C84.3598 20.9505 83.2921 19.3496 81.9429 17.9989C80.5936 16.6483 78.9891 15.5742 77.2211 14.8382C75.453 14.1021 73.556 13.7184 71.6383 13.7089C69.7207 13.6995 67.8199 14.0645 66.0445 14.7832C64.2692 15.5018 62.6541 16.56 61.2913 17.8974C59.9286 19.2347 58.845 20.825 58.1024 22.5774C57.3597 24.3298 56.9725 26.21 56.963 28.1107C56.8772 29.8769 56.1068 31.5421 54.8123 32.759C53.5179 33.9758 51.7995 34.6504 50.0154 34.642C48.2314 34.6335 46.5195 33.9428 45.2369 32.7138C43.9542 31.4848 43.1997 29.8124 43.1309 28.0454C43.1644 22.6621 44.7496 17.4003 47.6997 12.8801C50.6498 8.35993 54.8419 4.76964 59.7822 2.53222Z" fill="url(#paint1_linear_2047_97)"/>
<path d="M24.6283 50.9514C24.1598 50.8927 23.7339 50.6503 23.4441 50.2776C23.1544 49.9048 23.0246 49.4322 23.0833 48.9636C23.1419 48.4951 23.3843 48.0691 23.757 47.7793C24.1297 47.4895 24.6023 47.3596 25.0707 47.4183C30.8058 48.1308 36.5895 46.5389 41.1528 42.9918C45.7161 39.4447 48.6864 34.2321 49.4122 28.4976C49.4708 28.0291 49.7132 27.603 50.0859 27.3132C50.4586 27.0234 50.9312 26.8935 51.3996 26.9522C51.8681 27.0109 52.294 27.2532 52.5837 27.626C52.8735 27.9988 53.0033 28.4714 52.9446 28.9399C52.1016 35.6115 48.6465 41.6762 43.3378 45.8029C38.029 49.9296 31.3003 51.7812 24.6283 50.9514Z" fill="url(#paint2_linear_2047_97)"/>
<path d="M52 25C54.2091 25 56 23.2091 56 21C56 18.7909 54.2091 17 52 17C49.7909 17 48 18.7909 48 21C48 23.2091 49.7909 25 52 25Z" fill="#009387"/>
<defs>
<linearGradient id="paint0_linear_2047_97" x1="36.5005" y1="35.4985" x2="28.0005" y2="4.99853" gradientUnits="userSpaceOnUse">
<stop stop-color="#0C4898" stop-opacity="0.86"/>
<stop offset="1" stop-color="#2DB8E4" stop-opacity="0.23"/>
</linearGradient>
<linearGradient id="paint1_linear_2047_97" x1="81.501" y1="40.499" x2="72.001" y2="55.999" gradientUnits="userSpaceOnUse">
<stop stop-color="#0C4898" stop-opacity="0.79"/>
<stop offset="1" stop-color="#1ABCFE" stop-opacity="0"/>
</linearGradient>
<linearGradient id="paint2_linear_2047_97" x1="50.9478" y1="31.607" x2="24.9874" y2="49.9605" gradientUnits="userSpaceOnUse">
<stop stop-color="white"/>
<stop offset="1" stop-color="white" stop-opacity="0"/>
</linearGradient>
</defs>
</svg>
