<svg width="30" height="30" viewBox="0 0 30 30" fill="none" xmlns="http://www.w3.org/2000/svg">
<path d="M22.5 20C23.163 20 23.7989 20.2634 24.2678 20.7322C24.7366 21.2011 25 21.837 25 22.5C25 23.163 24.7366 23.7989 24.2678 24.2678C23.7989 24.7366 23.163 25 22.5 25C21.837 25 21.2011 24.7366 20.7322 24.2678C20.2634 23.7989 20 23.163 20 22.5M22.5 20C21.837 20 21.2011 20.2634 20.7322 20.7322C20.2634 21.2011 20 21.837 20 22.5M22.5 20V10M20 22.5H10M10 22.5C10 21.837 9.73661 21.2011 9.26777 20.7322C8.79893 20.2634 8.16304 20 7.5 20M10 22.5C10 23.163 9.73661 23.7989 9.26777 24.2678C8.79893 24.7366 8.16304 25 7.5 25C6.83696 25 6.20107 24.7366 5.73223 24.2678C5.26339 23.7989 5 23.163 5 22.5C5 21.837 5.26339 21.2011 5.73223 20.7322C6.20107 20.2634 6.83696 20 7.5 20M7.5 20V10M10 7.5C10 6.83696 9.73661 6.20107 9.26777 5.73223C8.79893 5.26339 8.16304 5 7.5 5C6.83696 5 6.20107 5.26339 5.73223 5.73223C5.26339 6.20107 5 6.83696 5 7.5C5 8.16304 5.26339 8.79893 5.73223 9.26777C6.20107 9.73661 6.83696 10 7.5 10M10 7.5C10 8.16304 9.73661 8.79893 9.26777 9.26777C8.79893 9.73661 8.16304 10 7.5 10M10 7.5H20M20 7.5C20 6.83696 20.2634 6.20107 20.7322 5.73223C21.2011 5.26339 21.837 5 22.5 5C23.163 5 23.7989 5.26339 24.2678 5.73223C24.7366 6.20107 25 6.83696 25 7.5C25 8.16304 24.7366 8.79893 24.2678 9.26777C23.7989 9.73661 23.163 10 22.5 10M20 7.5C20 8.16304 20.2634 8.79893 20.7322 9.26777C21.2011 9.73661 21.837 10 22.5 10M9.375 9.375L13.125 13.125M17.5 15C17.5 14.337 17.2366 13.7011 16.7678 13.2322C16.2989 12.7634 15.663 12.5 15 12.5C14.337 12.5 13.7011 12.7634 13.2322 13.2322C12.7634 13.7011 12.5 14.337 12.5 15C12.5 15.663 12.7634 16.2989 13.2322 16.7678C13.7011 17.2366 14.337 17.5 15 17.5C15.663 17.5 16.2989 17.2366 16.7678 16.7678C17.2366 16.2989 17.5 15.663 17.5 15Z" stroke="#2484DC" stroke-width="2" stroke-linecap="round" stroke-linejoin="round"/>
</svg>
