<svg width="30" height="30" viewBox="0 0 30 30" fill="none" xmlns="http://www.w3.org/2000/svg">
<g id="vaadin:handshake">
<path id="Vector" d="M24.375 5.625C23.3537 6.60244 22.1388 7.35488 20.8088 7.83375C19.4062 8.08125 15.525 6.28125 13.6125 8.11875C13.2938 8.4375 12.9 8.75625 12.4875 9.075C11.5875 8.68125 10.2 8.08125 9.1875 7.5C8.175 6.91875 5.625 5.625 5.625 5.625L0 12.1875C0 12.1875 1.3875 14.0625 2.25 15.3C2.8125 16.125 3.50625 17.3813 3.95625 18.225L3.31875 18.975C3.16608 19.2783 3.11116 19.6214 3.16152 19.9572C3.21189 20.293 3.36507 20.6049 3.6 20.85C3.87116 21.0533 4.2011 21.1629 4.54 21.1622C4.87891 21.1615 5.2084 21.0506 5.47875 20.8463C5.37851 20.9636 5.30264 21.0998 5.25557 21.2468C5.20851 21.3938 5.19119 21.5487 5.20463 21.7025C5.21807 21.8562 5.262 22.0058 5.33385 22.1424C5.4057 22.279 5.50404 22.3999 5.62313 22.4981C5.90944 22.6653 6.23519 22.7532 6.56676 22.7525C6.89833 22.7518 7.22372 22.6627 7.50938 22.4944C7.29515 22.7614 7.17792 23.0932 7.1769 23.4356C7.17588 23.7779 7.29112 24.1105 7.50375 24.3787C7.78014 24.4744 8.07492 24.5049 8.36505 24.4678C8.65518 24.4308 8.9328 24.3271 9.17625 24.165C9.05497 24.4521 9.02355 24.7691 9.08615 25.0744C9.14874 25.3797 9.30241 25.6588 9.52687 25.875C9.84395 26.0159 10.1916 26.074 10.5373 26.0438C10.8829 26.0136 11.2153 25.8962 11.5031 25.7025L12.4706 24.8269C13.3556 25.7081 14.5763 26.2537 15.9244 26.2537L16.0387 26.2519C16.483 26.214 16.9086 26.0559 17.27 25.7946C17.6313 25.5334 17.9148 25.1788 18.09 24.7687C18.3638 24.8738 18.675 24.945 19.005 24.945C19.4475 24.945 19.8581 24.8175 20.205 24.5981C21.3019 23.8725 21.0394 23.31 21.0394 23.31C21.4294 23.4779 21.8627 23.5177 22.2768 23.4237C22.6908 23.3297 23.0644 23.1067 23.3438 22.7869C23.634 22.49 23.817 22.1048 23.8639 21.6922C23.9107 21.2796 23.8188 20.8632 23.6025 20.5087C23.6144 20.5158 23.6281 20.5191 23.6419 20.5181C24.4312 20.5181 25.1175 20.0831 25.4756 19.4419C25.6519 18.9861 25.7114 18.4935 25.6489 18.0089C25.5863 17.5243 25.4037 17.063 25.1175 16.6669L25.1231 16.6763C26.6606 16.3763 26.6044 15.6075 27.3544 14.4825C28.0645 13.5644 28.9481 12.7949 29.955 12.2175L24.375 5.625ZM24.2812 18.8625C23.4562 19.6875 22.8188 19.3312 21.4125 18.2625C20.0063 17.1937 17.2125 15.1875 17.2125 15.1875C17.3269 15.7594 17.5913 16.2562 17.9644 16.6519C18.5625 17.325 20.3438 18.8625 21.1875 19.65C21.7125 20.1375 23.0625 21.1125 22.275 21.8625C21.4875 22.6125 20.8687 21.8625 19.575 20.8125C18.2812 19.7625 15.3938 17.175 15.3938 17.175C15.3778 17.423 15.4147 17.6716 15.502 17.9043C15.5893 18.137 15.7249 18.3486 15.9 18.525C16.2188 18.9 18 20.625 18.75 21.4125C19.5 22.2 20.1562 22.6688 19.5187 23.2875C18.8813 23.9062 17.5875 22.9312 16.875 22.2C15.7688 21.1313 13.575 19.1438 13.575 19.1438L13.5731 19.2431C13.5731 19.7756 13.7569 20.2631 14.0662 20.6494C14.6062 21.3581 15.6562 22.2769 16.2937 22.9894C16.9312 23.7019 17.3062 24.3019 16.2937 24.8644C15.2812 25.4269 13.7812 24.0394 13.125 23.3644V23.3606C13.1251 23.1754 13.0586 22.9964 12.9375 22.8562C12.7132 22.6485 12.4365 22.5059 12.1371 22.4437C11.8378 22.3816 11.5272 22.4024 11.2387 22.5037C11.3574 22.3975 11.4525 22.2676 11.518 22.1224C11.5835 21.9772 11.6179 21.8199 11.6189 21.6606C11.62 21.5013 11.5877 21.3436 11.5242 21.1975C11.4606 21.0515 11.3672 20.9203 11.25 20.8125C11.0039 20.626 10.7035 20.5253 10.3947 20.5256C10.0859 20.5259 9.78571 20.6274 9.54 20.8144C9.66424 20.6957 9.76015 20.5506 9.82061 20.3897C9.88106 20.2289 9.9045 20.0565 9.88919 19.8854C9.87387 19.7142 9.8202 19.5488 9.73216 19.4012C9.64412 19.2537 9.52396 19.1279 9.38062 19.0331C9.04497 18.8222 8.6511 18.7231 8.2556 18.7501C7.8601 18.777 7.48332 18.9286 7.17938 19.1831C7.38251 18.9369 7.48267 18.6217 7.45891 18.3034C7.43515 17.9851 7.28932 17.6883 7.05187 17.475C6.75678 17.2003 6.38072 17.0285 5.9799 16.9853C5.57909 16.942 5.17503 17.0296 4.82812 17.235L3.58125 15.1294C2.71875 13.7606 1.70625 12.3356 1.70625 12.3356L5.98125 7.14188C5.98125 7.14188 7.5 8.07938 8.75625 8.79188C9.375 9.14813 10.4438 9.61687 11.25 9.99188C9.975 10.9481 8.90625 11.8669 9.225 12.5044C9.79304 12.9121 10.4719 13.1371 11.171 13.1491C11.8702 13.1612 12.5564 12.9598 13.1381 12.5719C13.8841 12.076 14.7605 11.813 15.6563 11.8162C16.3069 11.8162 16.9256 11.9513 17.4862 12.1969C18.525 12.8981 20.4375 14.6231 22.1812 15.7106C24.375 17.3044 24.8062 18.3356 24.2812 18.8606V18.8625Z" fill="black"/>
</g>
</svg>
