<svg width="30" height="30" viewBox="0 0 30 30" fill="none" xmlns="http://www.w3.org/2000/svg">
<g clip-path="url(#clip0_2050_229)">
<path d="M17.0855 0.791016V3.75246H29.0677C29.5826 3.75246 30 4.16988 30 4.68486V25.0682C30 25.5831 29.5826 26.0005 29.0677 26.0005H17.0855V29.2106L0 26.1869V3.80941L17.0855 0.791074V0.791016ZM11.416 13.2255C11.4735 12.3151 11.2573 11.3921 10.6449 10.8019C9.91611 10.0993 9.43025 9.97623 7.34672 10.0841L5.65418 10.1718V19.7316H7.37508V16.4129C10.55 16.6839 11.2859 14.8525 11.416 13.2255ZM9.43811 13.2255C9.34816 14.7789 8.62869 14.7135 7.37502 14.6921V11.8035C8.78402 11.7538 9.39223 11.9469 9.43811 13.2255ZM27.6812 13.2171L24.4519 16.5852L21.0763 13.2171H23.6002V8.79211H17.0855V17.4429L19.6796 14.8903L23.5387 18.7521C23.5387 18.7521 19.7617 22.4359 19.6721 22.4359C19.5827 22.4359 17.0855 20.0545 17.0855 20.0545V25.0172H29.0085V4.73578H17.0855V7.19408H25.1981V13.2171L27.6812 13.2171Z" fill="#2484DC"/>
</g>
<defs>
<clipPath id="clip0_2050_229">
<rect width="30" height="30" fill="white"/>
</clipPath>
</defs>
</svg>
