<svg width="30" height="30" viewBox="0 0 30 30" fill="none" xmlns="http://www.w3.org/2000/svg">
<path d="M5.64844 1.875L2.83594 5.625H4.71094V9.375H6.5877V5.625H8.4627L5.64844 1.875ZM15.0252 1.875L12.2127 5.625H14.0877V9.375H15.9627V5.625H17.8377L15.0252 1.875ZM24.4002 1.875L21.5877 5.625H23.4627V9.375H25.3377V5.625H27.2127L24.4002 1.875ZM5.64844 11.25C4.64062 11.25 3.74414 12.3281 3.74414 13.7402C3.74414 14.4668 3.98437 15.1113 4.34766 15.5566L4.71094 16.0137L4.13086 16.1016C3.58008 16.1895 3.20508 16.4531 2.89453 16.8691C2.58398 17.2852 2.35547 17.8594 2.21484 18.5332C1.93945 19.7578 1.93359 21.2637 1.93359 22.5762H3.45117L3.82031 28.3184H7.32012L7.74199 22.5762H9.3416C9.33574 21.2812 9.27129 19.793 8.97246 18.5742C8.8084 17.9121 8.57988 17.332 8.26934 16.9102C7.97051 16.4941 7.60137 16.2305 7.10332 16.1367L6.53496 16.0312L6.90996 15.5918C7.28496 15.1348 7.54277 14.4844 7.54277 13.7402C7.54277 12.4102 6.74004 11.373 5.83594 11.25H5.64844ZM15.0252 11.25C14.0174 11.25 13.1209 12.3281 13.1209 13.7402C13.1209 14.4668 13.3611 15.1113 13.7244 15.5566L14.0877 16.0137L13.5076 16.1016C12.9568 16.1895 12.5818 16.4531 12.2713 16.8691C11.9607 17.2852 11.7322 17.8594 11.5916 18.5332C11.3162 19.7578 11.3104 21.2637 11.3104 22.5762H12.8279L13.1971 28.3184H16.6951L17.117 22.5762H18.7166C18.7107 21.2812 18.6463 19.793 18.3475 18.5742C18.1834 17.9121 17.9549 17.332 17.6443 16.9102C17.3455 16.4941 16.9764 16.2305 16.4783 16.1367L15.91 16.0312L16.285 15.5918C16.66 15.1348 16.9178 14.4844 16.9178 13.7402C16.9178 12.4102 16.115 11.373 15.2127 11.25H15.0252ZM24.4002 11.25C23.3982 11.25 22.5018 12.3281 22.5018 13.7402C22.5018 14.4668 22.742 15.1113 23.1053 15.5566L23.4686 16.0137L22.8885 16.1016C22.3377 16.1895 21.9568 16.4531 21.6463 16.8691C21.3357 17.2852 21.1072 17.8594 20.9666 18.5332C20.6912 19.7578 20.6854 21.2637 20.6854 22.5762H22.2029L22.5779 28.3184H26.0701L26.4979 22.5762H28.0916C28.0857 21.2812 28.0213 19.793 27.7283 18.5742C27.5643 17.9121 27.3299 17.332 27.0193 16.9102C26.7205 16.4941 26.3514 16.2305 25.8592 16.1367L25.2908 16.0312L25.66 15.5918C26.035 15.1348 26.2928 14.4844 26.2928 13.7402C26.2928 12.4102 25.49 11.373 24.5877 11.25H24.4002Z" fill="#2484DC"/>
</svg>
