<svg width="30" height="30" viewBox="0 0 30 30" fill="none" xmlns="http://www.w3.org/2000/svg">
<path d="M15 0.9375C12.1875 0.9375 10.3125 2.8125 10.3125 4.6875C10.3125 7.5 11.25 9.375 12.1875 10.3125V11.25H17.8125V10.3125C18.75 9.375 19.6875 7.5 19.6875 4.6875C19.6875 2.8125 17.8125 0.9375 15 0.9375ZM11.2734 4.76543L15 6.00586L18.7266 4.76543L16.4297 10.5059L15.4453 10.1191L16.8984 6.48633L15 7.11914L13.1016 6.48633L14.5547 10.1191L13.5703 10.5059L11.2734 4.76543ZM6.39258 9.39844C5.02148 9.57422 3.7793 11.1855 3.7793 13.2598C3.7793 14.4082 4.17773 15.4219 4.75781 16.125L5.45508 16.957L4.38281 17.1562C3.62695 17.3027 3.07617 17.7012 2.60156 18.3516C2.12695 19.002 1.76367 19.9043 1.51172 20.9531C1.05469 22.8398 0.949219 25.1484 0.9375 27.1875H3.44531L3.57656 28.9453H9.9375L10.0547 27.1875H12.4453C12.4453 25.125 12.4219 22.7871 12.0059 20.877C11.7715 19.8281 11.4258 18.9258 10.9453 18.2812C10.4648 17.6367 9.88477 17.2383 9.03516 17.1094L7.95117 16.9395L8.63672 16.0781C9.19336 15.3809 9.56836 14.3789 9.56836 13.2598C9.56836 11.0449 8.18555 9.4043 6.67383 9.4043L6.39258 9.39844ZM23.0098 9.39844C21.6387 9.57422 20.3965 11.1855 20.3965 13.2598C20.3965 14.4082 20.7949 15.4219 21.375 16.125L22.0723 16.957L21 17.1562C20.2441 17.3027 19.6934 17.7012 19.2188 18.3516C18.7441 19.002 18.3809 19.9043 18.1289 20.9531C17.6719 22.8398 17.5664 25.1484 17.5547 27.1875H20.0625L20.1914 28.9453H26.5547L26.6719 27.1875H29.0625C29.0625 25.125 29.0391 22.7871 28.623 20.877C28.3887 19.8281 28.043 18.9258 27.5625 18.2812C27.082 17.6367 26.502 17.2383 25.6523 17.1094L24.5684 16.9395L25.2539 16.0781C25.8105 15.3809 26.1855 14.3789 26.1855 13.2598C26.1855 11.0449 24.8027 9.4043 23.291 9.4043L23.0098 9.39844ZM12.1875 12.2461V13.3008H17.8125V12.2461H12.1875ZM13.125 14.2383V15.293H16.875V14.2383H13.125Z" fill="#2484DC"/>
</svg>
