<svg width="30" height="30" viewBox="0 0 30 30" fill="none" xmlns="http://www.w3.org/2000/svg">
<path d="M15 6.875C16.1603 6.875 17.2731 7.33594 18.0936 8.15641C18.9141 8.97688 19.375 10.0897 19.375 11.25C19.375 12.4103 18.9141 13.5231 18.0936 14.3436C17.2731 15.1641 16.1603 15.625 15 15.625C13.8397 15.625 12.7269 15.1641 11.9064 14.3436C11.0859 13.5231 10.625 12.4103 10.625 11.25C10.625 10.0897 11.0859 8.97688 11.9064 8.15641C12.7269 7.33594 13.8397 6.875 15 6.875ZM6.25 10C6.95 10 7.6 10.1875 8.1625 10.525C7.975 12.3125 8.5 14.0875 9.575 15.475C8.95 16.675 7.7 17.5 6.25 17.5C5.25544 17.5 4.30161 17.1049 3.59835 16.4017C2.89509 15.6984 2.5 14.7446 2.5 13.75C2.5 12.7554 2.89509 11.8016 3.59835 11.0983C4.30161 10.3951 5.25544 10 6.25 10ZM23.75 10C24.7446 10 25.6984 10.3951 26.4017 11.0983C27.1049 11.8016 27.5 12.7554 27.5 13.75C27.5 14.7446 27.1049 15.6984 26.4017 16.4017C25.6984 17.1049 24.7446 17.5 23.75 17.5C22.3 17.5 21.05 16.675 20.425 15.475C21.5148 14.068 22.0207 12.2952 21.8375 10.525C22.4 10.1875 23.05 10 23.75 10ZM6.875 22.8125C6.875 20.225 10.5125 18.125 15 18.125C19.4875 18.125 23.125 20.225 23.125 22.8125V25H6.875V22.8125ZM0 25V23.125C0 21.3875 2.3625 19.925 5.5625 19.5C4.825 20.35 4.375 21.525 4.375 22.8125V25H0ZM30 25H25.625V22.8125C25.625 21.525 25.175 20.35 24.4375 19.5C27.6375 19.925 30 21.3875 30 23.125V25Z" fill="#2484DC"/>
</svg>
