<svg width="30" height="30" viewBox="0 0 30 30" fill="none" xmlns="http://www.w3.org/2000/svg">
<path d="M15 1.34766C14.7832 1.34766 14.5664 1.35352 14.3496 1.36348L14.3965 2.41699C14.5957 2.40762 14.7949 2.40234 15 2.40234C21.9609 2.40234 27.5977 8.03906 27.5977 15C27.5977 21.9609 21.9609 27.5977 15 27.5977C9.75 27.5977 5.25293 24.3926 3.36035 19.8281L4.9793 19.3418L2.1416 17.332L1.02539 20.5254L2.34668 20.1328C4.37578 25.125 9.28125 28.6523 15 28.6523C22.5352 28.6523 28.6523 22.5352 28.6523 15C28.6523 7.46484 22.5352 1.34766 15 1.34766ZM13.1953 1.46719C12.416 1.56973 11.666 1.73672 10.9336 1.96406L11.2617 2.96543C11.9297 2.75801 12.627 2.60508 13.3359 2.51133L13.1953 1.46719ZM9.85547 2.35312C9.12891 2.64902 8.4375 3.00469 7.78125 3.41484L8.33789 4.30605C8.94141 3.92871 9.58008 3.60117 10.248 3.3293L9.85547 2.35312ZM6.82031 4.07227C6.2052 4.53334 5.62994 5.0453 5.10059 5.60273L5.86523 6.32227C6.35156 5.8084 6.88477 5.3373 7.44727 4.9125L7.16602 4.52754L6.82031 4.07227ZM10.8926 4.575L10.6348 5.59687L23.3496 8.84766L23.6074 7.82813L10.8926 4.575ZM4.34004 6.47461C3.86016 7.07227 3.42949 7.7168 3.05449 8.39062L3.97148 8.90625C4.31777 8.2793 4.71504 7.6875 5.15859 7.13086L4.34004 6.47461ZM11.8184 6.99023C11.5898 8.51367 11.9824 10.2246 12.6504 11.6309C13.0254 12.416 13.4824 13.1074 13.9336 13.6113C14.1797 13.8867 14.4258 14.0977 14.6484 14.25L14.332 15.4922C14.0625 15.5156 13.7461 15.5859 13.3945 15.709C12.7559 15.9316 12.0234 16.3184 11.3203 16.8281C10.0547 17.7422 8.89453 19.0488 8.36719 20.4961L18.1816 23.0098C18.4102 21.4863 18.0176 19.7754 17.3496 18.3691C16.9746 17.584 16.5176 16.8926 16.0664 16.3887C15.8203 16.1133 15.5742 15.9023 15.3516 15.75L15.668 14.5078C15.9316 14.4785 16.2539 14.4141 16.6055 14.291C17.2441 14.0684 17.9766 13.6816 18.6797 13.1719C19.9453 12.2578 21.1055 10.9512 21.6328 9.50391L11.8184 6.99023ZM2.53359 9.42773C2.22129 10.1309 1.96523 10.8574 1.77187 11.6133L2.79609 11.8594C2.97363 11.168 3.20859 10.5 3.49629 9.85547L2.53359 9.42773ZM1.53516 12.7441C1.4127 13.4766 1.34766 14.2324 1.34766 15V15.0527L2.40234 15.041V15C2.40234 14.291 2.46211 13.5938 2.5752 12.9141L1.53516 12.7441ZM6.65039 21.1523L6.39258 22.1719L19.1074 25.4238L19.3652 24.4043L6.65039 21.1523Z" fill="#2484DC"/>
</svg>
